<?xml version="1.0" encoding="utf-8"?>
<!-- Generator: Adobe Illustrator 27.9.0, SVG Export Plug-In . SVG Version: 6.00 Build 0)  -->
<svg version="1.1" id="Capa_2_00000011719467148476543960000002224103870806313401_"
	 xmlns="http://www.w3.org/2000/svg" xmlns:xlink="http://www.w3.org/1999/xlink" x="0px" y="0px" viewBox="0 0 472.4 471"
	 style="enable-background:new 0 0 472.4 471;" xml:space="preserve">
<style type="text/css">
	.st0{fill:#C64531;stroke:#C64531;stroke-miterlimit:10;}
</style>
<g>
	<g>
		<path class="st0" d="M274.7,399.5l61-24.2c2.3-0.9,4.5,0.4,4.9,2.8l9.8,57.7c0.4,2.5-1.1,5.2-3.4,6.1l-42.7-32.3
			c-2.3,0.9-22.8,56.2-23.3,53.7l-9.8-57.7C270.9,403.1,272.4,400.4,274.7,399.5z"/>
	</g>
	<g>
		<path class="st0" d="M248,403.3l64.1-14.1c2.4-0.5,4.3,1.1,4.4,3.6l0.4,58.5c0,2.5-1.9,4.9-4.3,5.5l-36.9-38.7
			c-2.4,0.5-31.6,51.8-31.6,49.3l-0.4-58.5C243.7,406.3,245.6,403.8,248,403.3z"/>
	</g>
	<g>
		<path class="st0" d="M221,402.8l65.6-3.7c2.4-0.1,4.1,1.8,3.7,4.2l-9,57.8c-0.4,2.5-2.7,4.6-5.1,4.7L246,421.6
			c-2.4,0.1-39.5,46.1-39.1,43.6l9-57.8C216.3,405,218.6,402.9,221,402.8z"/>
	</g>
	<g>
		<path class="st0" d="M194.4,398l65.3,6.9c2.4,0.3,3.8,2.4,3,4.8l-18.1,55.6c-0.8,2.4-3.4,4.1-5.8,3.8L216,420.7
			c-2.4-0.3-46.3,39.1-45.6,36.8l18.1-55.6C189.4,399.4,192,397.7,194.4,398z"/>
	</g>
	<g>
		<path class="st0" d="M169,388.9l63.4,17.3c2.4,0.6,3.3,3,2.2,5.2l-26.8,52c-1.1,2.2-4,3.5-6.3,2.9l-14.7-51.5
			c-2.4-0.6-52,31.2-50.9,29l26.8-52C163.8,389.6,166.7,388.3,169,388.9z"/>
	</g>
	<g>
		<path class="st0" d="M145.4,376l59.8,27.2c2.2,1,2.8,3.5,1.3,5.5l-34.8,47c-1.5,2-4.5,2.8-6.7,1.8l-6.2-53.1
			c-2.2-1-56.3,22.4-54.9,20.4l34.8-47C140.1,375.8,143.1,374.9,145.4,376z"/>
	</g>
	<g>
		<path class="st0" d="M124.1,359.3l54.6,36.5c2,1.4,2.2,3.9,0.4,5.6l-41.9,40.8c-1.8,1.7-4.9,2.1-6.9,0.7l2.4-53.5
			c-2-1.4-59.2,13.1-57.4,11.4l41.9-40.8C119,358.3,122,358,124.1,359.3z"/>
	</g>
	<g>
		<path class="st0" d="M105.8,339.5l48.1,44.8c1.8,1.7,1.6,4.2-0.5,5.6l-47.9,33.6c-2,1.4-5.2,1.2-6.9-0.4l10.9-52.4
			c-1.8-1.7-60.5,3.4-58.5,2l47.9-33.6C100.9,337.7,104,337.9,105.8,339.5z"/>
	</g>
	<g>
		<path class="st0" d="M90.8,317l40.3,51.9c1.5,1.9,0.9,4.4-1.4,5.5L77,399.9c-2.2,1.1-5.3,0.4-6.8-1.5l19.2-50
			c-1.5-1.9-60.3-6.3-58.1-7.4L84,315.5C86.3,314.4,89.3,315.1,90.8,317z"/>
	</g>
	<g>
		<path class="st0" d="M79.7,292.4l31.4,57.7c1.2,2.1,0.2,4.5-2.2,5.2L52.8,372c-2.4,0.7-5.3-0.4-6.5-2.6l26.9-46.2
			c-1.2-2.1-58.5-15.9-56.1-16.6l56.1-16.7C75.7,289.1,78.6,290.3,79.7,292.4z"/>
	</g>
	<g>
		<path class="st0" d="M72.7,266.4l21.8,62c0.8,2.3-0.5,4.4-3,4.8l-58,7.5c-2.5,0.3-5.1-1.3-6-3.6l34-41.3
			c-0.8-2.3-55.2-25.1-52.7-25.4l58-7.5C69.2,262.5,71.9,264.1,72.7,266.4z"/>
	</g>
	<g>
		<path class="st0" d="M70,239.5l11.5,64.7c0.4,2.4-1.2,4.3-3.7,4.2l-58.5-1.9c-2.5-0.1-4.9-2.1-5.3-4.5l40.2-35.3
			c-0.4-2.4-50.5-33.6-48-33.5l58.5,1.9C67.1,235.1,69.5,237.1,70,239.5z"/>
	</g>
	<g>
		<path class="st0" d="M71.5,212.6l1,65.7c0,2.4-1.9,4-4.4,3.6l-57.4-11.3c-2.5-0.5-4.5-2.9-4.5-5.3l45.3-28.4
			c0-2.4-44.4-41.3-42-40.8l57.4,11.3C69.5,207.8,71.5,210.2,71.5,212.6z"/>
	</g>
	<g>
		<path class="st0" d="M77.4,186.3l-9.5,65c-0.4,2.4-2.5,3.7-4.9,2.8L8.1,233.8c-2.3-0.9-4-3.5-3.6-6L53.8,207
			c0.4-2.4-37.2-47.9-34.9-47l54.9,20.3C76.2,181.2,77.8,183.8,77.4,186.3z"/>
	</g>
	<g>
		<path class="st0" d="M87.5,161.2l-19.8,62.6c-0.7,2.3-3.1,3.2-5.3,2l-50.9-28.9c-2.2-1.2-3.3-4.1-2.6-6.5l52-12.6
			c0.7-2.3-29.1-53.2-26.9-52l50.9,28.9C87,156,88.2,158.9,87.5,161.2z"/>
	</g>
	<g>
		<path class="st0" d="M101.4,138.1l-29.6,58.6c-1.1,2.2-3.6,2.7-5.5,1.1l-45.6-36.7c-1.9-1.6-2.6-4.6-1.5-6.8l53.4-4.1
			C73.7,148,52.4,93,54.4,94.6l45.6,36.7C101.8,132.9,102.5,135.9,101.4,138.1z"/>
	</g>
	<g>
		<path class="st0" d="M118.9,117.5l-38.7,53.1c-1.4,2-4,2.1-5.6,0.2l-39.1-43.5c-1.7-1.9-1.9-5-0.4-6.9l53.3,4.5
			c1.4-2-10.7-59.7-9-57.8l39.1,43.5C120.1,112.4,120.3,115.5,118.9,117.5z"/>
	</g>
	<g>
		<path class="st0" d="M139.4,100l-46.7,46.2c-1.7,1.7-4.2,1.4-5.6-0.7L55.5,96.3c-1.4-2.1-1-5.2,0.7-6.9l51.9,13
			c1.7-1.7-1-60.6,0.3-58.5L140,93.1C141.4,95.2,141.1,98.3,139.4,100z"/>
	</g>
	<g>
		<path class="st0" d="M162.5,86L109,124.1c-2,1.4-4.4,0.7-5.4-1.6L80.3,68.8c-1-2.3-0.2-5.3,1.8-6.7l49.2,21.2
			c2-1.4,8.7-60,9.7-57.7l23.3,53.7C165.3,81.6,164.5,84.6,162.5,86z"/>
	</g>
	<g>
		<path class="st0" d="M187.5,75.9L128.6,105c-2.2,1.1-4.5,0-5.1-2.4l-14.4-56.7c-0.6-2.4,0.7-5.3,2.9-6.3l45.1,28.8
			c2.2-1.1,18.2-57.8,18.9-55.4l14.4,56.7C191,72,189.7,74.8,187.5,75.9z"/>
	</g>
	<g>
		<path class="st0" d="M213.8,69.9L151,89.1c-2.3,0.7-4.4-0.7-4.6-3.2l-5.1-58.3c-0.2-2.5,1.5-5.1,3.8-5.8L185,57.4
			c2.3-0.7,27.3-54.2,27.5-51.7l5.1,58.3C217.9,66.6,216.1,69.2,213.8,69.9z"/>
	</g>
	<g>
		<path class="st0" d="M240.7,68.3l-65.1,8.9c-2.4,0.3-4.2-1.4-4.1-3.9l4.3-58.3c0.2-2.5,2.3-4.8,4.7-5.1l33.7,41.6
			c2.4-0.3,35.6-49.1,35.4-46.6l-4.3,58.3C245.3,65.6,243.2,67.9,240.7,68.3z"/>
	</g>
	<g>
		<path class="st0" d="M267.6,70.9l-65.7-1.6c-2.4-0.1-4-2.1-3.4-4.5l13.6-56.9c0.6-2.4,3-4.4,5.5-4.3L244.2,50
			c2.4,0.1,43-42.7,42.5-40.3l-13.6,56.9C272.5,69.1,270,71,267.6,70.9z"/>
	</g>
	<g>
		<path class="st0" d="M293.7,77.9l-64.5-12.1c-2.4-0.5-3.6-2.7-2.6-5l22.5-54c1-2.3,3.7-3.8,6.1-3.4l18.7,50.1
			c2.4,0.5,49.3-35.3,48.4-33l-22.5,54C298.8,76.8,296.1,78.3,293.7,77.9z"/>
	</g>
	<g>
		<path class="st0" d="M318.3,88.9l-61.8-22.3c-2.3-0.8-3.1-3.2-1.8-5.3l30.9-49.7c1.3-2.1,4.3-3.2,6.6-2.3l10.5,52.5
			c2.3,0.8,54.4-26.9,53-24.8l-30.8,49.6C323.5,88.7,320.6,89.7,318.3,88.9z"/>
	</g>
	<g>
		<path class="st0" d="M340.8,103.8l-57.4-32c-2.1-1.2-2.5-3.7-0.9-5.6L321,22.1c1.6-1.9,4.7-2.4,6.8-1.3l2,53.5
			c2.1,1.2,58-17.8,56.3-16l-38.5,44.1C346,104.4,343,104.9,340.8,103.8z"/>
	</g>
	<g>
		<path class="st0" d="M360.7,122l-51.5-40.8c-1.9-1.5-1.9-4,0-5.6l45-37.3c1.9-1.6,5-1.7,7-0.1l-6.7,53.1
			c1.9,1.5,60.1-8.3,58.1-6.7l-45,37.3C365.7,123.5,362.6,123.5,360.7,122z"/>
	</g>
	<g>
		<path class="st0" d="M377.4,143.2l-44.3-48.5c-1.6-1.8-1.2-4.3,0.9-5.6l50.4-29.5c2.2-1.3,5.2-0.8,6.9,1l-15.1,51.3
			c1.6,1.8,60.6,1.4,58.5,2.7l-50.5,29.6C382.1,145.5,379,145.1,377.4,143.2z"/>
	</g>
	<g>
		<path class="st0" d="M390.4,166.9l-36-55c-1.3-2-0.5-4.4,1.8-5.3l54.5-21.1c2.3-0.9,5.3,0,6.6,2.1l-23.1,48.3
			c1.3,2,59.6,11.1,57.3,12L397,169C394.7,169.8,391.8,168.9,390.4,166.9z"/>
	</g>
	<g>
		<path class="st0" d="M399.5,192.3l-26.7-60c-1-2.2,0.2-4.5,2.6-5l57.2-12.1c2.4-0.5,5.2,0.9,6.2,3.1l-30.6,43.9
			c1,2.2,57.1,20.6,54.6,21.1l-57.2,12.1C403.3,195.9,400.5,194.5,399.5,192.3z"/>
	</g>
	<g>
		<path class="st0" d="M404.4,218.8l-16.7-63.5c-0.6-2.4,0.9-4.4,3.4-4.5l58.4-2.8c2.5-0.1,5,1.7,5.6,4.1l-37.2,38.5
			c0.6,2.4,53,29.4,50.5,29.6L410,223C407.6,223,405.1,221.2,404.4,218.8z"/>
	</g>
	<g>
		<path class="st0" d="M405,245.8l-6.3-65.4c-0.2-2.4,1.6-4.2,4.1-3.9l58.1,6.6c2.5,0.3,4.7,2.5,4.9,4.9l-42.9,32
			c0.2,2.4,47.6,37.6,45.1,37.3l-58.1-6.6C407.5,250.4,405.3,248.2,405,245.8z"/>
	</g>
	<g>
		<path class="st0" d="M401.3,272.5l4.3-65.5c0.2-2.4,2.2-3.9,4.6-3.2l56.3,15.9c2.4,0.7,4.2,3.2,4.1,5.6L423.1,250
			c-0.2,2.4,41,44.7,38.6,44l-56.3-15.9C402.9,277.5,401.1,275,401.3,272.5z"/>
	</g>
	<g>
		<path class="st0" d="M393.3,298.3l14.7-64c0.5-2.4,2.8-3.5,5.1-2.4l53,24.7c2.3,1.1,3.7,3.8,3.1,6.2l-50.8,16.8
			c-0.5,2.4,33.3,50.7,31,49.7l-53-24.7C394.1,303.5,392.7,300.7,393.3,298.3z"/>
	</g>
	<g>
		<path class="st0" d="M381.3,322.5l24.8-60.8c0.9-2.3,3.3-3,5.4-1.6l48.4,32.9c2.1,1.4,3,4.4,2.1,6.6l-52.9,8.4
			c-0.9,2.3,24.7,55.4,22.6,54l-48.4-32.9C381.3,327.7,380.3,324.7,381.3,322.5z"/>
	</g>
	<g>
		<path class="st0" d="M365.5,344.4l34.2-56c1.3-2.1,3.8-2.4,5.6-0.7l42.5,40.2c1.8,1.7,2.3,4.8,1,6.9l-53.5-0.2
			c-1.3,2.1,15.5,58.6,13.7,56.9l-42.5-40.2C364.7,349.6,364.2,346.5,365.5,344.4z"/>
	</g>
	<g>
		<path class="st0" d="M346.5,363.5l42.8-49.8c1.6-1.9,4.1-1.7,5.6,0.2l35.5,46.5c1.5,2,1.5,5.1-0.1,7l-52.8-8.8
			c-1.6,1.9,5.9,60.4,4.4,58.4l-35.5-46.5C344.8,368.5,344.9,365.4,346.5,363.5z"/>
	</g>
	<g>
		<path class="st0" d="M324.6,379.3l50.2-42.3c1.9-1.6,4.3-1.1,5.5,1.1l27.6,51.6c1.2,2.2,0.6,5.3-1.3,6.8l-50.7-17.1
			c-1.9,1.6-3.9,60.5-5.1,58.3l-27.6-51.6C322.1,383.9,322.7,380.9,324.6,379.3z"/>
	</g>
	<g>
		<path class="st0" d="M300.5,391.4l56.4-33.7c2.1-1.3,4.5-0.4,5.3,2l18.9,55.4c0.8,2.4-0.2,5.3-2.3,6.6l-47.3-25
			c-2.1,1.3-13.5,59.1-14.3,56.8l-18.9-55.4C297.3,395.6,298.4,392.7,300.5,391.4z"/>
	</g>
</g>
</svg>
